<?xml version="1.0" encoding="UTF-8" standalone="no"?>
<svg
   xmlns:dc="http://purl.org/dc/elements/1.1/"
   xmlns:cc="http://creativecommons.org/ns#"
   xmlns:rdf="http://www.w3.org/1999/02/22-rdf-syntax-ns#"
   xmlns:svg="http://www.w3.org/2000/svg"
   xmlns="http://www.w3.org/2000/svg"
   xmlns:sodipodi="http://sodipodi.sourceforge.net/DTD/sodipodi-0.dtd"
   xmlns:inkscape="http://www.inkscape.org/namespaces/inkscape"
   viewBox="0 0 512 512"
   version="1.1"
   id="svg4"
   sodipodi:docname="favicon.svg"
   inkscape:version="0.92.4 (5da689c313, 2019-01-14)"
   inkscape:export-filename="C:\Users\Derek\Sync\CS\weather\client\public\favicon-512.png"
   inkscape:export-xdpi="96"
   inkscape:export-ydpi="96"
   width="512"
   height="512">
  <metadata
     id="metadata10">
    <rdf:RDF>
      <cc:Work
         rdf:about="">
        <dc:format>image/svg+xml</dc:format>
        <dc:type
           rdf:resource="http://purl.org/dc/dcmitype/StillImage" />
        <dc:title></dc:title>
      </cc:Work>
    </rdf:RDF>
  </metadata>
  <defs
     id="defs8" />
  <sodipodi:namedview
     pagecolor="#ffffff"
     bordercolor="#666666"
     borderopacity="1"
     objecttolerance="10"
     gridtolerance="10"
     guidetolerance="10"
     inkscape:pageopacity="0"
     inkscape:pageshadow="2"
     inkscape:window-width="1920"
     inkscape:window-height="1057"
     id="namedview6"
     showgrid="false"
     inkscape:snap-bbox="true"
     inkscape:snap-bbox-midpoints="true"
     inkscape:snap-bbox-edge-midpoints="true"
     showguides="true"
     inkscape:guide-bbox="true"
     inkscape:zoom="1.2291667"
     inkscape:cx="190.37342"
     inkscape:cy="299.43838"
     inkscape:window-x="-8"
     inkscape:window-y="-8"
     inkscape:window-maximized="1"
     inkscape:current-layer="g1101" />
  <g
     id="g911"
     transform="matrix(0.00932081,-0.00664586,0.00664586,0.00932081,3.2221484,506.62075)">
    <g
       id="g858">
</g>
    <g
       id="g860">
</g>
    <g
       id="g862">
</g>
    <g
       id="g864">
</g>
    <g
       id="g866">
</g>
    <g
       id="g868">
</g>
    <g
       id="g870">
</g>
    <g
       id="g872">
</g>
    <g
       id="g874">
</g>
    <g
       id="g876">
</g>
    <g
       id="g878">
</g>
    <g
       id="g880">
</g>
    <g
       id="g882">
</g>
    <g
       id="g884">
</g>
    <g
       id="g886">
</g>
  </g>
  <g
     id="g1101"
     transform="matrix(20.778092,0,0,20.778092,6.732965,0.82515068)">
    <path
       style="fill:#444444;fill-opacity:1;stroke:none;stroke-width:1.15824246;stroke-opacity:1"
       inkscape:connector-curvature="0"
       id="path2"
       d="M 19.437673,8.7680599 A 8.1076975,8.1076975 0 0 0 3.9635537,10.968721 4.63297,4.63297 0 0 0 5.0523017,20.107254 H 17.792969 A 5.7912125,5.7912125 0 0 0 19.437673,8.7680599 Z M 17.792969,17.790769 H 5.0523017 a 2.3164851,2.3164851 0 0 1 0,-4.63297 1.1582425,1.1582425 0 0 0 1.1582425,-1.158242 5.7912125,5.7912125 0 0 1 11.2696998,-1.864771 1.1582425,1.1582425 0 0 0 0.903429,0.764441 3.4747275,3.4747275 0 0 1 -0.590704,6.891542 z" />
    <g
       style="fill:#444444;fill-opacity:1"
       transform="matrix(-0.01961258,-0.01095492,0.01095492,-0.01961258,14.098858,17.856185)"
       id="g911-7-9">
      <path
         style="fill:#444444;fill-opacity:1"
         inkscape:connector-curvature="0"
         d="m 138.4989,152.1367 c 0,10.782 119.955,-138.316 140.33,-169.806 -42.419,-14.403 -104.745,-6.47 -174.781,62.094 -80.928001,79.218 -90.563001,191.222 -211.431,219.349 71.222999,43.123 233.578,43.578 348.819,-44.783 89.068,-68.281 119.284,-157.736 82.941,-205.289 33.728,-50.591 53.155,-100.399 53.826,-162.097 -18.67,35.843 -62.43,158.2340002 -239.704,300.532 z"
         id="path856-0-4" />
      <g
         style="fill:#444444;fill-opacity:1"
         id="g858-8-9" />
      <g
         style="fill:#444444;fill-opacity:1"
         id="g860-6-4" />
      <g
         style="fill:#444444;fill-opacity:1"
         id="g862-9-6" />
      <g
         style="fill:#444444;fill-opacity:1"
         id="g864-2-5" />
      <g
         style="fill:#444444;fill-opacity:1"
         id="g866-5-7" />
      <g
         style="fill:#444444;fill-opacity:1"
         id="g868-8-1" />
      <g
         style="fill:#444444;fill-opacity:1"
         id="g870-0-7" />
      <g
         style="fill:#444444;fill-opacity:1"
         id="g872-8-8" />
      <g
         style="fill:#444444;fill-opacity:1"
         id="g874-6-2" />
      <g
         style="fill:#444444;fill-opacity:1"
         id="g876-7-7" />
      <g
         style="fill:#444444;fill-opacity:1"
         id="g878-7-3" />
      <g
         style="fill:#444444;fill-opacity:1"
         id="g880-6-3" />
      <g
         style="fill:#444444;fill-opacity:1"
         id="g882-4-6" />
      <g
         style="fill:#444444;fill-opacity:1"
         id="g884-0-0" />
      <g
         style="fill:#444444;fill-opacity:1"
         id="g886-6-7" />
    </g>
  </g>
</svg>
