<?xml version="1.0" standalone="no"?>
<!DOCTYPE svg PUBLIC "-//W3C//DTD SVG 20010904//EN"
 "http://www.w3.org/TR/2001/REC-SVG-20010904/DTD/svg10.dtd">
<svg version="1.0" xmlns="http://www.w3.org/2000/svg"
 width="512.000000pt" height="512.000000pt" viewBox="0 0 512.000000 512.000000"
 preserveAspectRatio="xMidYMid meet">
<metadata>
Created by potrace 1.11, written by Peter Selinger 2001-2013
</metadata>
<g transform="translate(0.000000,512.000000) scale(0.100000,-0.100000)"
fill="#000000" stroke="none">
<path d="M2360 4290 c-83 -12 -133 -21 -152 -26 -10 -3 -30 -7 -44 -10 -126
-23 -377 -131 -519 -224 -392 -257 -638 -626 -741 -1110 -2 -8 -5 -30 -7 -48
-3 -18 -6 -34 -8 -36 -2 -2 -29 -11 -59 -21 -30 -9 -69 -23 -85 -30 -17 -8
-41 -18 -55 -24 -26 -11 -35 -16 -110 -65 -117 -76 -237 -207 -309 -337 -112
-201 -147 -472 -90 -694 71 -276 254 -504 504 -628 99 -49 186 -76 285 -91 64
-9 425 -12 1500 -11 778 1 1433 5 1455 9 298 54 498 155 691 351 404 410 463
1034 143 1512 -143 214 -358 380 -604 468 -48 17 -52 21 -87 94 -91 191 -270
416 -433 546 -27 22 -52 43 -55 46 -16 17 -187 123 -255 157 -145 73 -312 130
-460 156 -16 3 -41 9 -55 12 -40 9 -389 12 -450 4z m435 -494 c418 -90 751
-375 895 -766 38 -101 107 -165 200 -184 19 -4 46 -10 60 -12 48 -10 190 -83
247 -128 98 -76 152 -144 206 -256 49 -99 67 -175 71 -290 11 -315 -177 -592
-475 -701 -43 -15 -106 -32 -141 -36 -35 -4 -684 -7 -1443 -7 l-1380 1 -64 22
c-250 87 -387 343 -315 590 35 123 121 229 234 290 66 35 114 49 200 57 96 8
136 21 176 56 57 50 83 100 89 165 2 32 7 94 10 138 4 44 8 82 10 85 2 3 6 21
9 41 9 57 55 195 89 268 127 273 384 508 669 615 61 23 216 59 293 69 65 9
294 -2 360 -17z"/>
<path d="M2520 2844 c-202 -31 -372 -89 -509 -172 -101 -61 -155 -108 -219
-189 -51 -67 -84 -151 -87 -227 l-2 -58 -98 -59 c-178 -107 -289 -203 -388
-335 -112 -150 -113 -155 -6 -80 305 213 607 359 994 480 96 30 250 70 315 82
14 2 47 9 73 15 82 19 61 5 -61 -39 -64 -24 -126 -47 -137 -52 -11 -5 -72 -30
-135 -56 -63 -25 -128 -52 -145 -59 -16 -7 -90 -39 -164 -71 l-133 -59 48 -44
c62 -56 186 -115 289 -136 156 -32 386 -10 585 56 120 40 214 85 410 195 311
174 442 222 625 229 67 3 223 -16 245 -30 43 -27 -44 91 -130 175 -213 209
-549 370 -900 430 -105 18 -362 20 -470 4z"/>
</g>
</svg>
