<svg class="feather feather-cloud" width="36" height="36" fill="none" stroke="currentColor" stroke-linecap="round" stroke-linejoin="round" stroke-width="2.5" version="1.1" viewBox="0 0 24 24" xmlns="http://www.w3.org/2000/svg"><path transform="scale(.66667)" d="m22.51 7.9473c-1.9932 0.00193-3.8326 1.0715-4.8203 2.8027 3.4778 1.3319 6.1509 4.1878 7.25 7.7461 1.9113-0.92905 3.1252-2.867 3.127-4.9922 4.9e-4 -3.069-2.4876-5.5571-5.5566-5.5566zm2.4297 10.549c-0.84298-3.1673-3.679-6.408-7.25-7.7461-7.089-2.7385-14.921 1.6431-16.297 9.1171-1.3757 7.474 4.3829 14.357 11.982 14.322h13.643c4.1563-0.04153 7.5038-3.4226 7.5038-7.5791 0-4.1565-3.3475-7.5376-7.5038-7.5791h-1.9102c-0.05186-0.17966-0.10786-0.35809-0.16797-0.53516z" style="stroke-width:2.5"/><g transform="matrix(.73237 0 0 .73237 6.2396 .1924)" style="fill:none;stroke-linecap:round;stroke-linejoin:round;stroke-width:2.2757;stroke:currentColor"><line x1="11.971" x2="11.971" y1=".90273" y2="2.9256" style="stroke-width:2.2757"/><line x1="4.1021" x2="5.5384" y1="4.1596" y2="5.5959" style="stroke-width:2.2757"/><line x1="21.074" x2="23.097" y1="12.029" y2="12.029" style="stroke-width:2.2757"/><line x1="18.404" x2="19.84" y1="5.5959" y2="4.1596" style="stroke-width:2.2757"/></g></svg>
