<svg class="feather feather-cloud" width="36" height="36" fill="none" stroke="currentColor" stroke-linecap="round" stroke-linejoin="round" stroke-width="2.5" version="1.1" viewBox="0 0 24 24" xmlns="http://www.w3.org/2000/svg"><path d="m17.105 0.93476c-2.7057 0.2528-4.8348 2.4199-5.0396 5.1297 2.2665 0.98523 3.9527 2.9596 4.5712 5.3524h1.2638c0.56769 2.47e-4 1.1312 0.09686 1.6666 0.2857 2.0034-0.74778 3.4025-2.5758 3.6008-4.705-4.0026 2.9549-9.0177-2.0601-6.0628-6.0628zm2.4619 10.768c-1.0033-0.45686-2.9585-0.31351-2.9585-0.31351-0.23408-1.7929-2.0229-4.278-4.5431-5.3246-4.6696-2.0332-10.028 0.74072-11.063 5.7274-1.0353 4.9867 2.7757 9.6643 7.8688 9.6579h9.0291c5.6397-0.0023 6.9851-7.8713 1.6666-9.7473z" style="stroke-width:1.6667"/></svg>
