<svg class="feather feather-cloud-moon" width="36" height="36" fill="none" stroke="currentColor" stroke-linecap="round" stroke-linejoin="round" stroke-width="2.5" version="1.1" viewBox="0 0 24 24" xmlns="http://www.w3.org/2000/svg"><g transform="matrix(.65253 0 0 .65253 9.4614 -1.1071)" style="fill:none;stroke-linecap:round;stroke-linejoin:round;stroke-width:2.5541"><path transform="matrix(1.0245 0 0 1.0245 -14.6 1.7178)" d="m25.193 1.252c-6.1071 0.5639-9.7713 7.0537-7.0996 12.574 1.6797 0.97587 3.0754 2.3736 4.0488 4.0547 5.5195 2.699 12.034-0.95678 12.605-7.0742-6.3079 4.6554-14.21-3.2468-9.5547-9.5547zm-3.0508 16.629c-1.093-1.6735-1.5653-2.4605-4.0488-4.0547-6.3504-3.6785-14.461-0.32652-16.362 6.7619s3.445 14.049 10.784 14.041h12.547c3.8498 0 6.9707-3.1209 6.9707-6.9707s-3.1209-6.9707-6.9707-6.9707h-1.7578c-0.25755-0.98417-0.64854-1.9285-1.1621-2.8066z" style="stroke-width:2.493"/></g></svg>
