<svg class="feather feather-cloud-sun" width="36" height="36" fill="none" stroke="currentColor" stroke-linecap="round" stroke-linejoin="round" stroke-width="2.5" version="1.1" viewBox="0 0 24 24" xmlns="http://www.w3.org/2000/svg"><path transform="scale(.66667)" d="m19.807 9.416c-3.1239 0.00441-5.84 2.1437-6.5762 5.1797 3.8932 0.71016 7.0206 3.615 8.0156 7.4453h1.5996c0.11534 0.0014 0.23061 6e-3 0.3457 0.01367 2.0961-1.2081 3.3891-3.442 3.3926-5.8613 4.22e-4 -3.7432-3.0341-6.7778-6.7773-6.7773zm3.3848 12.639c-4.4427 0.43321 0.0653-4.2267-9.9609-7.459-5.7166-1.8429-11.482 3.0905-12.023 9.0725-0.54086 5.9819 4.1945 11.126 10.201 11.082h11.438c3.42-0.03021 6.2026-2.762 6.2957-6.1809 0.0931-3.4189-2.5367-6.2981-5.95-6.5144z" style="stroke-width:2.5"/><g transform="matrix(.90354 0 0 .90354 2.3621 -.047421)" style="fill:none;stroke-width:1.8446"><line x1="12" x2="12" y1="1" y2="3" style="stroke-width:1.8446"/><line x1="4.22" x2="5.64" y1="4.22" y2="5.64" style="stroke-width:1.8446"/><line x1="21" x2="23" y1="12" y2="12" style="stroke-width:1.8446"/><line x1="18.36" x2="19.78" y1="5.64" y2="4.22" style="stroke-width:1.8446"/></g></svg>
