<svg class="feather feather-cloud" width="36" height="36" fill="none" stroke="currentColor" stroke-linecap="round" stroke-linejoin="round" stroke-width="2.5" version="1.1" viewBox="0 0 24 24" xmlns="http://www.w3.org/2000/svg"><path d="m0.64042 15.971c-0.14292-0.37918-0.25802-0.77187-0.35349-1.1739h23.713c0 0.40149-0.03819 0.79124-0.09873 1.1739zm3.8654-11.738c1.2514-0.74604 2.6893-1.1734 4.2211-1.1734 1.5307 0 2.9654 0.42849 4.2151 1.1734zm-4.43 7.0431c0.04637-0.40031 0.11892-0.79065 0.21111-1.1734h22.036c0.30057 0.35981 0.56678 0.75191 0.79371 1.1734zm0.5646-2.3473c0.15329-0.40677 0.33439-0.79769 0.53678-1.1739h15.101c0.02183 0.03991-0.02128-0.04109 0 0 0.40756-0.0034 0.79699 0 1.1761 0 1.337 0 2.5797 0.43318 3.6151 1.1739zm1.2803-2.3479c0.31639-0.42438 0.66824-0.81472 1.0474-1.1739h11.522c0.3764 0.35805 0.72334 0.75132 1.0381 1.1739zm21.98 7.0425h-23.825c-0.044739-0.38505-0.075822-0.7748-0.075822-1.1734h23.619c0.12383 0.37742 0.21874 0.76952 0.28148 1.1734zm-0.28148 3.5218c-0.13474 0.41029-0.30276 0.80239-0.50241 1.1739h-21.196c-0.27548-0.3692-0.52205-0.76248-0.74352-1.1739zm-20.651 2.3479h19.354c-0.37094 0.44493-0.78934 0.84172-1.2541 1.1734h-16.563c-0.55423-0.32988-1.0659-0.72784-1.5378-1.1734z" style="clip-rule:evenodd;fill-rule:evenodd;fill:currentColor;stroke:none"/></svg>
