<svg width="36" height="36" enable-background="new 0 0 100 100" version="1.1" viewBox="0 0 36 36" xml:space="preserve" xmlns="http://www.w3.org/2000/svg">
<path d="m31.571 8h-27.143c-0.78867 0-1.4287-0.64008-1.4287-1.428 0-0.78867 0.64008-1.4287 1.4287-1.4287h27.143c0.78867 0 1.4287 0.64008 1.4287 1.4287 0 0.78795-0.63936 1.428-1.4287 1.428zm-25.714 2.8575h21.428c0.78866 0 1.4287 0.64008 1.4287 1.4287 0 0.78866-0.64008 1.428-1.4287 1.428h-21.428c-0.78867 0-1.4287-0.64008-1.4287-1.428 0-0.78938 0.64008-1.4287 1.4287-1.4287zm8.571 5.7143h15.715c0.78866 0 1.428 0.64008 1.428 1.428 0 0.78866-0.63936 1.4287-1.428 1.4287h-15.715c-0.78867 0-1.428-0.64008-1.428-1.4287 0-0.78795 0.63936-1.428 1.428-1.428zm1.4287 11.429h4.2855c0.78867 0 1.4287 0.64008 1.4287 1.428 0 0.78867-0.64008 1.4287-1.4287 1.4287h-4.2855c-0.78866 0-1.4287-0.64008-1.4287-1.4287 0-0.78795 0.64008-1.428 1.4287-1.428zm0.71437-4.2862c0-0.78866 0.64008-1.428 1.4287-1.428h9.9998c0.78867 0 1.4287 0.64008 1.4287 1.428 0 0.78866-0.64008 1.4287-1.4287 1.4287h-9.9998c-0.78867 0-1.4287-0.63936-1.4287-1.4287z" style="clip-rule:evenodd;fill-rule:evenodd;stroke-width:.71437;fill:currentColor"/>
</svg>
