<svg width="500" height="113" version="1.0" viewBox="0 0 375 84.75" xmlns="http://www.w3.org/2000/svg">
  <g transform="matrix(.11162 0 0 .11162 -.30249 .26338)">
    <path transform="matrix(.1 0 0 -.1 0 759)" d="m16370 4342v-418l-50 48c-165 159-446 182-665 54-115-68-221-219-261-371-41-159-17-376 59-520 44-84 165-203 247-243 221-108 497-67 640 96l40 45v-163h290v1890h-300zm-225-511c103-48 168-121 205-232 30-89 25-210-12-291-55-119-168-204-286-215-190-17-344 132-359 348-12 171 59 314 189 379 53 26 72 30 142 30 58 0 93-6 121-19z"/>
    <path transform="matrix(.1 0 0 -.1 0 759)" d="m17660 3815v-945h290v173l33-41c144-179 429-225 660-105 135 70 236 196 287 358 30 96 38 272 16 375-49 235-225 419-443 465-182 39-360-4-478-116l-55-52v833h-310zm763 19c104-35 193-156 217-293 29-166-59-355-198-422-68-33-198-34-264-1-163 80-252 275-204 447 8 28 21 66 29 85 31 72 128 161 202 188 46 16 165 14 218-4z"/>
    <path transform="matrix(.1 0 0 -.1 0 759)" d="m25350 3815v-945h310l2 301 3 301 229-297c126-163 234-299 240-301s100-3 208-2l197 3-546 650 56 61c31 34 148 156 260 273l203 211-407-2-220-245-220-246-3 592-2 591h-310z"/>
    <path transform="matrix(.1 0 0 -.1 0 759)" d="m28760 3815v-945h310l2 301 3 301 229-297c126-163 234-299 240-301s100-3 208-2l197 3-546 650 56 61c31 34 148 156 260 273l203 211-407-2-220-245-220-246-3 592-2 591h-310z"/>
    <path transform="matrix(.1 0 0 -.1 0 759)" d="m27835 4684c-219-32-366-107-460-236-61-82-85-164-85-287 0-159 42-257 150-354 72-65 134-95 346-167 196-67 246-93 297-149 107-118 54-297-108-366-62-26-189-31-260-10-91 26-172 72-227 126-32 32-54 47-62 42-7-5-59-51-116-104l-102-97 17-26c20-30 121-109 177-137 50-25 129-54 208-75 92-25 308-25 413-1 262 62 426 247 444 502 11 160-35 286-143 384-72 66-160 109-369 181-233 80-296 117-324 193-15 40-14 121 3 161 44 105 207 173 352 147 74-14 167-59 218-105 21-20 42-36 46-36s53 51 109 113l102 112-38 33c-49 43-201 116-283 136-65 17-248 28-305 20z"/>
    <path transform="matrix(.1 0 0 -.1 0 759)" d="m6620 3755v-885h320v730h183c325 0 497 50 620 179 102 107 133 201 125 382-6 133-28 201-89 279-78 99-186 157-345 184-69 13-169 16-451 16h-363zm757 590c58-20 126-72 147-114 25-47 29-114 12-174-13-43-26-64-63-96-73-65-142-82-355-88l-178-6v505l193-4c148-4 204-9 244-23z"/>
    <path transform="matrix(.1 0 0 -.1 0 759)" d="m21160 3756v-886h379c288 0 399 4 463 15 376 65 647 289 740 610 20 71 23 102 23 265 0 216-11 273-81 415-89 182-239 315-442 391-174 65-195 67-659 71l-423 4zm810 584c189-39 320-132 392-280 47-96 62-169 62-305 0-192-43-305-158-421-137-137-294-183-623-184h-163v1223l198-7c133-4 228-13 292-26z"/>
    <path transform="matrix(.1 0 0 -.1 0 759)" d="m8610 4104c-260-46-440-187-517-405-38-106-44-281-14-399 52-207 200-362 416-436 72-25 94-28 215-28 120 0 144 3 215 27 202 67 348 209 412 401 23 71 27 97 27 211s-4 140-27 210c-66 197-224 344-432 400-58 16-245 28-295 19zm242-278c65-32 123-91 159-163 33-66 34-71 34-188 0-115-1-123-32-186-146-299-545-250-627 77-26 103-18 190 27 296 29 69 124 156 195 178 48 16 203 7 244-14z"/>
    <path transform="matrix(.1 0 0 -.1 0 759)" d="m12085 4094c-144-28-295-127-375-244-78-115-110-226-110-386 0-236 82-407 249-518 223-148 545-155 766-15 63 40 145 121 145 143 0 6-28 33-63 60-34 28-79 63-99 79l-37 29-49-49c-80-80-126-98-257-98-100 0-115 3-166 28-90 44-178 155-179 225v22h913l-6 123c-7 143-29 234-81 334-115 219-368 323-651 267zm276-247c79-39 132-117 145-211l7-46h-603v24c0 36 34 108 70 149 35 40 84 73 139 94 51 19 195 13 242-10z"/>
    <path transform="matrix(.1 0 0 -.1 0 759)" d="m13639 4096c-84-23-166-85-223-171l-26-40v185h-290v-1200h300v308c0 169 5 336 10 372 20 121 73 200 173 252 35 19 58 23 140 23h97v136c0 116-2 138-16 143-26 10-115 6-165-8z"/>
    <path transform="matrix(.1 0 0 -.1 0 759)" d="m14425 4094c-144-28-295-127-375-244-78-115-110-226-110-386 0-236 82-407 249-518 223-148 545-155 766-15 63 40 145 121 145 143 0 6-28 33-63 60-34 28-79 63-99 79l-37 29-49-49c-80-80-126-98-257-98-100 0-115 3-166 28-90 44-178 155-179 225v22h913l-6 123c-7 143-29 234-81 334-115 219-368 323-651 267zm276-247c79-39 132-117 145-211l7-46h-603v24c0 36 34 108 70 149 35 40 84 73 139 94 51 19 195 13 242-10z"/>
    <path transform="matrix(.1 0 0 -.1 0 759)" d="m23400 4096c-80-17-151-41-210-71-54-27-150-97-150-108s149-187 158-187c4 0 26 15 49 33 75 61 157 90 258 95 74 3 100 0 146-17 91-34 126-80 144-183l6-38h-108c-59 0-155-7-213-14-261-35-413-113-477-244-25-51-28-68-28-152 1-113 19-163 89-238 81-87 205-132 361-132 147 0 257 42 335 127l40 43v-140h290v394c0 429-7 502-54 596-55 109-143 183-265 221-86 27-277 35-371 15zm394-738c-13-118-48-186-118-232-119-77-321-64-376 26-53 87 2 181 132 224 73 24 132 32 255 33l112 1z"/>
    <path transform="matrix(.1 0 0 -.1 0 759)" d="m24979 4096c-84-23-166-85-223-171l-26-40v185h-290v-1200h300v308c0 169 5 336 10 372 20 121 73 200 173 252 35 19 58 23 140 23h97v136c0 116-2 138-16 143-26 10-115 6-165-8z"/>
    <path transform="matrix(.1 0 0 -.1 0 759)" d="m9490 4061c0-7 334-973 392-1133l21-58h316l71 223c39 122 99 308 133 414l62 192 134-415 135-414 159 2 160 3 199 575c109 316 201 585 204 598l6 22h-320l-15-47c-187-635-232-783-237-783-3 0-62 187-130 415l-125 415h-334l-21-72c-87-295-223-745-229-755-4-7-61 175-127 405l-121 417-167 3c-94 1-166-1-166-7z"/>
    <path transform="matrix(.1 0 0 -.1 0 759)" d="m19060 4062c0-4 114-274 254-600l254-592-28-73c-91-237-125-267-285-254l-72 6-11-131c-7-72-9-134-6-137s72-6 152-6c132 0 153 3 207 24 74 30 157 111 203 197 17 34 161 392 318 795 157 404 290 744 295 757l9 22h-327l-144-425c-79-234-146-425-149-425s-56 134-119 298c-63 163-136 354-163 425l-50 127h-169c-93 0-169-3-169-8z"/>
    <path transform="matrix(.1 0 0 -.1 0 759)" d="m29940 4062c0-4 114-274 254-600l254-592-28-73c-91-237-125-267-285-254l-72 6-11-131c-7-72-9-134-6-137s72-6 152-6c132 0 153 3 207 24 74 30 157 111 203 197 17 34 161 392 318 795 157 404 290 744 295 757l9 22h-327l-144-425c-79-234-146-425-149-425s-56 134-119 298c-63 163-136 354-163 425l-50 127h-169c-93 0-169-3-169-8z"/>
    <path d="m371.17 159.8c-3.5805 14.608-22.432 46.242-42.465 71.932l-9.5421 12.46c0 0.18226 5.908-2.3275 13.158-5.4961 15.754-7.0537 30.166-11.941 43.826-14.949 10.992-2.5063 31.687-5.6749 37.058-5.6749 2.5781 0 3.1866-0.2506 2.7569-1.3784-1.3784-3.5267-35.232-53.636-41.086-60.761l-2.0596-2.5063zm43.396 75.191c-17.186 20.534-29.826 39.457-38.419 57.503l-9.2737 22.521c0.0911 0.18225 7.4834-1.8978 16.327-4.5472l16.327-4.5472c0.18226 0.18226-2.6854 6.2659-6.3554 13.66-11.941 24.168-19.764 46.332-23.202 66.347-1.8978 10.742-4.207 38.938-3.2584 39.797 0.35769 0.35768 5.4961-1.7178 11.511-4.5472l11.279-4.9769c0.18226 0.18226-0.85891 5.5856-2.3272 12.209a343.01 343.01 0 0 0-8.0742 77.178c0 22.432 0.6812 30.936 4.1177 52.508 3.2581 20.105 6.2659 32.135 8.0562 32.135 4.3861 0 22.092-3.8669 31.114-6.8744a156.11 156.11 0 0 0 102.62-111.05c6.6956-27.498 6.0868-55.498-1.7907-81.313-8.9513-29.306-22.092-52.419-60.421-106.34l-27.749-39.958-12.639-17.903c-0.43059-0.18226-3.9387 3.5268-7.8236 8.1635zm-114.58 31.867c-48.91 57.825-70.536 96.351-78.807 140.27a191.38 191.38 0 0 0 0 56.035c5.872 31.544 20.015 58.631 42.393 81.367 22.682 23.041 51.058 38.168 82.244 43.915 9.7031 1.7907 37.058 3.4374 39.887 2.3275 1.0389-0.43059-0.0911-2.9182-5.5854-11.941-14.859-24.401-24.491-46.242-29.987-67.976-3.1866-12.639-6.8744-32.314-6.8744-36.7 0-4.7265-1.0389-4.7265-9.2737 0-4.2966 2.3988-8.1635 4.207-8.6827 3.9384-0.95003-0.6083-6.2659-22.432-8.2352-33.603-3.8669-22.02-5.4961-49.5-4.1175-68.155 0.43059-5.4065 0.53767-9.8822 0.25061-9.9717-0.28706-0.0911-5.2455 1.7178-11.171 4.2968l-10.741 4.4756-0.6812-2.6854c-0.77006-3.0973-0.0911-27.069 1.1984-41.856 1.7178-20.284 6.445-42.608 13.248-63.089l2.8287-9.542c-0.18226-0.18227-3.5805 3.5805-7.9846 8.844z" stroke-width="17.903"/>
  </g>
</svg>
